<svg width="25" height="24" viewBox="0 0 25 24" fill="none" xmlns="http://www.w3.org/2000/svg">
<path d="M12.4998 6.50236C9.4596 6.50236 7.00603 8.95593 7.00603 11.9961C7.00603 15.0363 9.4596 17.4899 12.4998 17.4899C15.54 17.4899 17.9935 15.0363 17.9935 11.9961C17.9935 8.95593 15.54 6.50236 12.4998 6.50236ZM12.4998 15.5666C10.5337 15.5666 8.92924 13.9622 8.92924 11.9961C8.92924 10.03 10.5337 8.42557 12.4998 8.42557C14.4659 8.42557 16.0703 10.03 16.0703 11.9961C16.0703 13.9622 14.4659 15.5666 12.4998 15.5666ZM18.2185 4.997C17.5087 4.997 16.9355 5.57022 16.9355 6.28004C16.9355 6.98986 17.5087 7.56307 18.2185 7.56307C18.9284 7.56307 19.5016 6.99254 19.5016 6.28004C19.5018 6.11149 19.4687 5.94455 19.4043 5.78879C19.3399 5.63303 19.2454 5.49151 19.1262 5.37232C19.0071 5.25314 18.8655 5.15864 18.7098 5.09424C18.554 5.02983 18.3871 4.99679 18.2185 4.997ZM23.2087 11.9961C23.2087 10.5175 23.2221 9.05236 23.1391 7.57647C23.056 5.86218 22.665 4.34075 21.4114 3.08718C20.1551 1.83093 18.6364 1.44254 16.9221 1.3595C15.4435 1.27647 13.9784 1.28986 12.5025 1.28986C11.0239 1.28986 9.55871 1.27647 8.08282 1.3595C6.36853 1.44254 4.8471 1.83361 3.59353 3.08718C2.33728 4.34343 1.94889 5.86218 1.86585 7.57647C1.78281 9.05504 1.79621 10.5202 1.79621 11.9961C1.79621 13.472 1.78281 14.9399 1.86585 16.4158C1.94889 18.13 2.33996 19.6515 3.59353 20.905C4.84978 22.1613 6.36853 22.5497 8.08282 22.6327C9.56139 22.7158 11.0266 22.7024 12.5025 22.7024C13.981 22.7024 15.4462 22.7158 16.9221 22.6327C18.6364 22.5497 20.1578 22.1586 21.4114 20.905C22.6676 19.6488 23.056 18.13 23.1391 16.4158C23.2248 14.9399 23.2087 13.4747 23.2087 11.9961ZM20.8516 18.3122C20.656 18.7997 20.4203 19.164 20.0426 19.539C19.665 19.9166 19.3034 20.1524 18.8159 20.3479C17.4069 20.9077 14.0614 20.7818 12.4998 20.7818C10.9382 20.7818 7.58996 20.9077 6.18103 20.3506C5.69353 20.155 5.32924 19.9193 4.95424 19.5416C4.57656 19.164 4.34085 18.8024 4.14531 18.3149C3.58817 16.9033 3.71406 13.5577 3.71406 11.9961C3.71406 10.4345 3.58817 7.08629 4.14531 5.67736C4.34085 5.18986 4.57656 4.82557 4.95424 4.45057C5.33192 4.07557 5.69353 3.83718 6.18103 3.64165C7.58996 3.0845 10.9382 3.21039 12.4998 3.21039C14.0614 3.21039 17.4096 3.0845 18.8185 3.64165C19.306 3.83718 19.6703 4.0729 20.0453 4.45057C20.423 4.82825 20.6587 5.18986 20.8542 5.67736C21.4114 7.08629 21.2855 10.4345 21.2855 11.9961C21.2855 13.5577 21.4114 16.9033 20.8516 18.3122Z" fill="#222222"/>
</svg>
