<svg width="32" height="32" viewBox="0 0 32 32" fill="none" xmlns="http://www.w3.org/2000/svg">
<path d="M10.2425 30.9153L10.7878 27.3926L9.57309 27.364H3.77295L7.80375 1.37013C7.81626 1.29166 7.85692 1.21849 7.91635 1.16653C7.97578 1.11457 8.0519 1.08594 8.13114 1.08594H17.911C21.1577 1.08594 23.3983 1.77308 24.5682 3.12935C25.1166 3.7656 25.4659 4.43047 25.6348 5.16216C25.812 5.9299 25.8152 6.84715 25.6421 7.96588L25.6296 8.04754V8.76437L26.178 9.08038C26.6399 9.32957 27.0069 9.61482 27.2884 9.94143C27.7576 10.4854 28.061 11.1768 28.1892 11.9965C28.3216 12.8395 28.2778 13.8427 28.061 14.9784C27.8107 16.2848 27.4062 17.4226 26.8599 18.3537C26.3573 19.2115 25.7171 19.9231 24.9571 20.4745C24.2314 20.9983 23.3692 21.396 22.3943 21.6505C21.4497 21.9007 20.3726 22.0269 19.1913 22.0269H18.4302C17.886 22.0269 17.3574 22.2263 16.9424 22.5837C16.5264 22.9484 16.2511 23.4468 16.1667 23.9919L16.1093 24.3089L15.1459 30.5176L15.1021 30.7456C15.0907 30.8177 15.0709 30.8538 15.0417 30.8782C15.0156 30.9005 14.9781 30.9153 14.9416 30.9153H10.2425Z" fill="#253B80"/>
<path d="M26.697 8.13013C26.6678 8.31994 26.6345 8.514 26.5969 8.71335C25.3072 15.448 20.8948 17.7746 15.2594 17.7746H12.3901C11.7009 17.7746 11.1202 18.2836 11.0128 18.975L9.5437 28.4508L9.12769 31.1368C9.05783 31.5907 9.4019 32 9.85232 32H14.9414C15.544 32 16.056 31.5546 16.1508 30.9502L16.2009 30.6872L17.1591 24.5029L17.2206 24.1635C17.3144 23.557 17.8274 23.1116 18.43 23.1116H19.1911C24.1217 23.1116 27.9815 21.0756 29.1097 15.184C29.5809 12.7228 29.337 10.6677 28.09 9.22235C27.7125 8.78652 27.2444 8.42492 26.697 8.13013Z" fill="#179BD7"/>
<path d="M25.3478 7.58288C25.1507 7.52456 24.9474 7.47154 24.7389 7.42382C24.5293 7.37716 24.3145 7.33581 24.0935 7.29975C23.3199 7.1725 22.4722 7.11206 21.5641 7.11206H13.8987C13.71 7.11206 13.5306 7.15554 13.3701 7.23401C13.0166 7.40685 12.7539 7.74725 12.6903 8.16399L11.0596 18.6684L11.0127 18.9749C11.1201 18.2835 11.7008 17.7745 12.39 17.7745H15.2593C20.8947 17.7745 25.3071 15.4469 26.5969 8.71328C26.6354 8.51392 26.6678 8.31987 26.697 8.13006C26.3706 7.95403 26.0172 7.80345 25.6366 7.67514C25.5428 7.64333 25.4458 7.61257 25.3478 7.58288Z" fill="#222D65"/>
<path d="M13.3701 7.23518C13.5317 7.15671 13.71 7.11324 13.8987 7.11324H21.5641C22.4723 7.11324 23.3199 7.17368 24.0935 7.30093C24.3146 7.33698 24.5294 7.37834 24.7389 7.425C24.9475 7.47272 25.1508 7.52574 25.3478 7.58406C25.4458 7.61375 25.5428 7.6445 25.6377 7.67526C26.0182 7.80357 26.3717 7.9552 26.698 8.13017C27.0817 5.64139 26.6949 3.94685 25.3718 2.41244C23.9132 0.7232 21.2805 0 17.9118 0H8.13195C7.44382 0 6.85682 0.508997 6.75047 1.20145L2.67692 27.4625C2.59664 27.9821 2.99075 28.4508 3.50581 28.4508H9.54367L11.0597 18.6685L12.6903 8.16411C12.7539 7.74736 13.0167 7.40697 13.3701 7.23518Z" fill="#253B80"/>
</svg>
